<?xml version="1.0" encoding="UTF-8"?>
<svg version="1.1" xmlns="http://www.w3.org/2000/svg" width="572" height="589">
<path d="M0 0 C58.08 0 116.16 0 176 0 C176 0.66 176 1.32 176 2 C174.19921875 3.19140625 174.19921875 3.19140625 171.6875 4.5625 C164.81414426 8.54335939 157.45488077 13.31767884 153 20 C152.34 20 151.68 20 151 20 C150.75121094 20.50015625 150.50242187 21.0003125 150.24609375 21.515625 C149.83488281 22.33546875 149.42367187 23.1553125 149 24 C148.72559082 24.57298828 148.45118164 25.14597656 148.16845703 25.73632812 C147.17665108 27.76602291 146.12368695 29.75579788 145.0625 31.75 C144.57040039 32.79607422 144.57040039 32.79607422 144.06835938 33.86328125 C142.97265625 35.859375 142.97265625 35.859375 140 39 C136.37 39 132.74 39 129 39 C129 82.89 129 126.78 129 172 C132.96 172 136.92 172 141 172 C140.95359375 170.35773438 140.9071875 168.71546875 140.859375 167.0234375 C140.41645869 144.93656548 144.11067214 125.59364204 160 109 C174.23055301 95.11823505 193.02674032 87.84841985 212.85327148 87.88647461 C213.49802933 87.88632858 214.14278717 87.88618256 214.80708313 87.8860321 C216.91178907 87.88672183 219.01640351 87.89446958 221.12109375 87.90234375 C222.59082491 87.90421128 224.06055669 87.9056336 225.5302887 87.90663147 C229.37879181 87.9104303 233.22725656 87.92023779 237.07574463 87.93133545 C241.0107776 87.9416065 244.94581683 87.94614124 248.88085938 87.95117188 C256.58725698 87.96186268 264.29362309 87.97890708 272 88 C271.18413367 92.68526378 269.41358902 96.48879149 267.21875 100.671875 C266.84520386 101.39489807 266.47165771 102.11792114 266.08679199 102.862854 C265.29954001 104.38387416 264.50931727 105.90335996 263.71630859 107.42138672 C262.49847628 109.75291716 261.28949438 112.08886663 260.08203125 114.42578125 C259.31561223 115.90390938 258.54870231 117.3817831 257.78125 118.859375 C257.23591614 119.91085724 257.23591614 119.91085724 256.67956543 120.98358154 C254.11749385 125.88250615 254.11749385 125.88250615 253 127 C251.52373759 127.10167308 250.04273492 127.13568017 248.56298828 127.1418457 C247.61755157 127.14888016 246.67211487 127.15591461 245.69802856 127.16316223 C244.66588226 127.16732651 243.63373596 127.17149078 242.5703125 127.17578125 C240.3906156 127.19900388 238.2109281 127.22312216 236.03125 127.24804688 C232.59075876 127.28298936 229.15060698 127.31239931 225.70996094 127.32592773 C222.3921544 127.34153247 219.07534995 127.38185039 215.7578125 127.42578125 C214.74590851 127.42387283 213.73400452 127.42196442 212.69143677 127.41999817 C203.98424273 127.56697453 195.65974465 129.23194039 189.0625 135.25 C182.6158349 142.43872727 180.87614157 149.66386566 180.82421875 159.10546875 C180.80097357 160.74675695 180.77685451 162.38803296 180.75195312 164.02929688 C180.71726293 166.58691003 180.68773184 169.14408766 180.67407227 171.7019043 C180.580424 186.40468266 179.43622225 201.25727355 172.25 214.4375 C171.91145996 215.08654297 171.57291992 215.73558594 171.22412109 216.40429688 C168.17463326 222.06221349 164.61736964 227.49101932 160 232 C159.34 232 158.68 232 158 232 C157.79246094 232.56847656 157.58492187 233.13695312 157.37109375 233.72265625 C151.23979884 243.90654495 134.59576954 249.5342576 123.80078125 252.421875 C114.8826478 254.26271705 106.05738174 254.11696349 97 254.0625 C95.54297029 254.05747576 94.0859389 254.05291449 92.62890625 254.04882812 C89.08586177 254.03875121 85.54305313 254.01916315 82 254 C82 258.95 82 263.9 82 269 C79 269 79 269 77.03881836 267.36352539 C76.31315674 266.61578857 75.58749512 265.86805176 74.83984375 265.09765625 C74.04642578 264.29005859 73.25300781 263.48246094 72.43554688 262.65039062 C71.19901367 261.36938477 71.19901367 261.36938477 69.9375 260.0625 C68.30290106 258.38465097 66.66628197 256.70876689 65.02734375 255.03515625 C64.30281006 254.2862915 63.57827637 253.53742676 62.83178711 252.76586914 C61.11098342 250.93099363 61.11098342 250.93099363 59 250 C59 249.34 59 248.68 59 248 C58.45859375 247.78601563 57.9171875 247.57203125 57.359375 247.3515625 C54.1607203 245.51922057 51.79035516 243.00203394 49.25 240.375 C48.74339844 239.859375 48.23679688 239.34375 47.71484375 238.8125 C46.47196098 237.54616661 45.23534724 236.2736856 44 235 C48.17777765 230.01407125 52.53127277 225.33295716 57.1484375 220.75390625 C57.80582916 220.09792953 58.46322083 219.44195282 59.14053345 218.76609802 C61.21632862 216.69584732 63.29559427 214.62912349 65.375 212.5625 C66.7932008 211.14932138 68.21117176 209.73591206 69.62890625 208.32226562 C73.08328777 204.87883935 76.5407837 201.43856901 80 198 C82 200 82 200 82.1953125 203.4765625 C82.18201493 204.85950968 82.15816232 206.24238654 82.125 207.625 C82.11597656 208.33140625 82.10695313 209.0378125 82.09765625 209.765625 C82.07407603 211.51056098 82.03820461 213.25532295 82 215 C86.66030322 214.81103765 91.31875373 214.59848381 95.97705078 214.36523438 C97.55749035 214.28928574 99.13823866 214.21947681 100.71923828 214.15625 C112.43684225 213.68191309 123.38914997 213.01135468 132 204 C137.38476592 196.03534623 139.3896432 188.5462583 139 179 C138.64550781 179.42667969 138.29101562 179.85335937 137.92578125 180.29296875 C132.46092288 186.71053851 126.49766175 192.60129482 120.49902344 198.51318359 C119.12402978 199.87698023 117.76804351 201.25987091 116.4140625 202.64453125 C114.05499699 204.94633789 111.58576116 206.96057561 109 209 C104.43574914 204.48631271 99.879242 199.9649178 95.328125 195.43798828 C93.77783095 193.89777374 92.22574964 192.35935603 90.671875 190.82275391 C88.44322895 188.61827047 86.22101609 186.40747954 84 184.1953125 C83.30003906 183.50567413 82.60007812 182.81603577 81.87890625 182.10549927 C81.23824219 181.46498627 80.59757812 180.82447327 79.9375 180.16455078 C79.36902344 179.60051544 78.80054688 179.0364801 78.21484375 178.45535278 C77 177 77 177 77 175 C76.34 175 75.68 175 75 175 C75 174.01 75 173.02 75 172 C79.95 172 84.9 172 90 172 C90 128.11 90 84.22 90 39 C66.8582615 39.31652523 66.8582615 39.31652523 43.71801758 39.72070312 C39.23376465 39.75683594 39.23376465 39.75683594 37.13188171 39.7635498 C35.6694032 39.77580447 34.20700372 39.80388244 32.74504089 39.84460449 C20.42673356 40.17045485 20.42673356 40.17045485 17.00721741 37.36517334 C15.67376869 35.28192307 14.81791903 33.32888228 14 31 C13.18946167 29.53675293 13.18946167 29.53675293 12.36254883 28.04394531 C11.66681763 26.69961426 11.66681763 26.69961426 10.95703125 25.328125 C10.18262695 23.83732422 10.18262695 23.83732422 9.39257812 22.31640625 C8.87115234 21.30449219 8.34972656 20.29257813 7.8125 19.25 C7.01295898 17.70892578 7.01295898 17.70892578 6.19726562 16.13671875 C4.79298963 13.42708432 3.39154582 10.71619302 2 8 C1.42318481 6.97471191 1.42318481 6.97471191 0.8347168 5.92871094 C0 4 0 4 0 0 Z " fill="#124569" transform="translate(129,159)"/>
<path d="M0 0 C0.33 0 0.66 0 1 0 C1 43.89 1 87.78 1 133 C4.96 133 8.92 133 13 133 C12.95359375 131.35773438 12.9071875 129.71546875 12.859375 128.0234375 C12.41645869 105.93656548 16.11067214 86.59364204 32 70 C46.23055301 56.11823505 65.02674032 48.84841985 84.85327148 48.88647461 C85.49802933 48.88632858 86.14278717 48.88618256 86.80708313 48.8860321 C88.91178907 48.88672183 91.01640351 48.89446958 93.12109375 48.90234375 C94.59082491 48.90421128 96.06055669 48.9056336 97.5302887 48.90663147 C101.37879181 48.9104303 105.22725656 48.92023779 109.07574463 48.93133545 C113.0107776 48.9416065 116.94581683 48.94614124 120.88085938 48.95117188 C128.58725698 48.96186268 136.29362309 48.97890708 144 49 C143.18413367 53.68526378 141.41358902 57.48879149 139.21875 61.671875 C138.84520386 62.39489807 138.47165771 63.11792114 138.08679199 63.862854 C137.29954001 65.38387416 136.50931727 66.90335996 135.71630859 68.42138672 C134.49847628 70.75291716 133.28949438 73.08886663 132.08203125 75.42578125 C131.31561223 76.90390938 130.54870231 78.3817831 129.78125 79.859375 C129.23591614 80.91085724 129.23591614 80.91085724 128.67956543 81.98358154 C126.11749385 86.88250615 126.11749385 86.88250615 125 88 C123.52373759 88.10167308 122.04273492 88.13568017 120.56298828 88.1418457 C119.61755157 88.14888016 118.67211487 88.15591461 117.69802856 88.16316223 C116.66588226 88.16732651 115.63373596 88.17149078 114.5703125 88.17578125 C112.3906156 88.19900388 110.2109281 88.22312216 108.03125 88.24804688 C104.59075876 88.28298936 101.15060698 88.31239931 97.70996094 88.32592773 C94.3921544 88.34153247 91.07534995 88.38185039 87.7578125 88.42578125 C86.74590851 88.42387283 85.73400452 88.42196442 84.69143677 88.41999817 C75.98424273 88.56697453 67.65974465 90.23194039 61.0625 96.25 C54.6158349 103.43872727 52.87614157 110.66386566 52.82421875 120.10546875 C52.80097357 121.74675695 52.77685451 123.38803296 52.75195312 125.02929688 C52.71726293 127.58691003 52.68773184 130.14408766 52.67407227 132.7019043 C52.580424 147.40468266 51.43622225 162.25727355 44.25 175.4375 C43.91145996 176.08654297 43.57291992 176.73558594 43.22412109 177.40429688 C40.17463326 183.06221349 36.61736964 188.49101932 32 193 C31.34 193 30.68 193 30 193 C29.79246094 193.56847656 29.58492188 194.13695312 29.37109375 194.72265625 C23.23979884 204.90654495 6.59576954 210.5342576 -4.19921875 213.421875 C-13.1173522 215.26271705 -21.94261826 215.11696349 -31 215.0625 C-32.45702971 215.05747576 -33.9140611 215.05291449 -35.37109375 215.04882812 C-38.91413823 215.03875121 -42.45694687 215.01916315 -46 215 C-46 219.95 -46 224.9 -46 230 C-49 230 -49 230 -50.96118164 228.36352539 C-51.68684326 227.61578857 -52.41250488 226.86805176 -53.16015625 226.09765625 C-53.95357422 225.29005859 -54.74699219 224.48246094 -55.56445312 223.65039062 C-56.80098633 222.36938477 -56.80098633 222.36938477 -58.0625 221.0625 C-59.69709894 219.38465097 -61.33371803 217.70876689 -62.97265625 216.03515625 C-63.69718994 215.2862915 -64.42172363 214.53742676 -65.16821289 213.76586914 C-66.88901658 211.93099363 -66.88901658 211.93099363 -69 211 C-69 210.34 -69 209.68 -69 209 C-69.54140625 208.78601563 -70.0828125 208.57203125 -70.640625 208.3515625 C-73.8392797 206.51922057 -76.20964484 204.00203394 -78.75 201.375 C-79.25660156 200.859375 -79.76320312 200.34375 -80.28515625 199.8125 C-81.52803902 198.54616661 -82.76465276 197.2736856 -84 196 C-79.82222235 191.01407125 -75.46872723 186.33295716 -70.8515625 181.75390625 C-69.86547501 180.76994118 -69.86547501 180.76994118 -68.85946655 179.76609802 C-66.78367138 177.69584732 -64.70440573 175.62912349 -62.625 173.5625 C-61.2067992 172.14932138 -59.78882824 170.73591206 -58.37109375 169.32226562 C-54.91671223 165.87883935 -51.4592163 162.43856901 -48 159 C-46 161 -46 161 -45.8046875 164.4765625 C-45.81798507 165.85950968 -45.84183768 167.24238654 -45.875 168.625 C-45.88402344 169.33140625 -45.89304688 170.0378125 -45.90234375 170.765625 C-45.92592397 172.51056098 -45.96179539 174.25532295 -46 176 C-41.33969678 175.81103765 -36.68124627 175.59848381 -32.02294922 175.36523438 C-30.44250965 175.28928574 -28.86176134 175.21947681 -27.28076172 175.15625 C-15.56315775 174.68191309 -4.61085003 174.01135468 4 165 C9.30681755 157.15064034 11.30240732 149.99381169 10.875 140.55078125 C11 138 11 138 13 134 C8.71 134 4.42 134 0 134 C0 89.78 0 45.56 0 0 Z " fill="#50ADDF" transform="translate(257,198)"/>
<path d="M0 0 C1.43596527 -0.00021904 1.43596527 -0.00021904 2.90093994 -0.0004425 C6.02822225 0.00024763 9.15544309 0.00799743 12.28271484 0.01586914 C14.46560636 0.01773652 16.6484983 0.01915891 18.83139038 0.02015686 C24.5490639 0.02395684 30.26671161 0.03376537 35.984375 0.04486084 C41.82991182 0.05512937 47.67545284 0.0596661 53.52099609 0.06469727 C64.97022612 0.07539011 76.41943708 0.09243596 87.86865234 0.11352539 C87.07164303 4.62413606 85.45788897 8.31709309 83.36865234 12.36352539 C83.01988037 13.04938721 82.6711084 13.73524902 82.31176758 14.44189453 C79.55838472 19.8322858 76.7515585 25.19544833 73.93115234 30.55102539 C73.54185547 31.290625 73.15255859 32.03022461 72.75146484 32.79223633 C69.99129601 37.99088173 69.99129601 37.99088173 68.86865234 39.11352539 C66.42714289 39.22790239 64.01275598 39.27834969 61.57006836 39.28710938 C60.80569962 39.29379639 60.04133087 39.3004834 59.25379944 39.30737305 C57.58684978 39.32146103 55.9198804 39.33334302 54.25290108 39.34332085 C51.60781462 39.3597105 48.96287149 39.38295335 46.31785583 39.40821838 C38.79457758 39.47900841 31.27123693 39.53880943 23.74780273 39.59033203 C19.14945503 39.622306 14.55126542 39.66364088 9.9530468 39.71052742 C8.20574764 39.72645464 6.45841198 39.73881855 4.71106148 39.74743462 C-11.35257163 39.59628351 -11.35257163 39.59628351 -26.44384766 44.48852539 C-27.22373047 44.88813477 -28.00361328 45.28774414 -28.80712891 45.69946289 C-33.61045064 48.62181998 -36.82060297 51.66252203 -39.81884766 56.42602539 C-40.40021484 57.3296582 -40.98158203 58.23329102 -41.58056641 59.16430664 C-44.72157598 65.13776313 -45.17173351 69.9015488 -44.81884766 76.55102539 C-45.02978516 80.53149414 -45.02978516 80.53149414 -46.13134766 84.11352539 C-49.5881262 86.85808054 -53.0366662 88.40831139 -57.05322266 90.15649414 C-68.57267102 95.26993941 -77.34995018 107.04250941 -83.93212891 117.39086914 C-84.32787109 117.9593457 -84.72361328 118.52782227 -85.13134766 119.11352539 C-85.46134766 119.11352539 -85.79134766 119.11352539 -86.13134766 119.11352539 C-86.2066124 113.03445005 -86.26046513 106.95565751 -86.29614258 100.8762207 C-86.31104645 98.81660221 -86.33137658 96.75701439 -86.35766602 94.69750977 C-86.70492511 66.75336582 -82.8779325 43.46189465 -62.88134766 22.30102539 C-45.42810275 5.55468565 -23.54261104 -0.09613845 0 0 Z " fill="#50AEE0" transform="translate(355.13134765625,158.886474609375)"/>
<path d="M0 0 C0.55896973 0.45068848 1.11793945 0.90137695 1.69384766 1.36572266 C33.1970708 26.90047499 57.22865153 62.80520358 68 102 C68.22236328 102.79760742 68.44472656 103.59521484 68.67382812 104.41699219 C82.66326144 155.69165305 77.17001201 211.54569754 51.09667969 258.16503906 C43.03905058 272.23099036 33.70080198 284.8513745 23 297 C22.34185303 297.75289307 22.34185303 297.75289307 21.67041016 298.52099609 C16.44852354 304.47632663 11.13078733 309.98945621 5 315 C4.50467773 315.41830078 4.00935547 315.83660156 3.49902344 316.26757812 C-11.26212096 328.73177404 -27.39328951 339.02968773 -45 347 C-45.66676758 347.30244629 -46.33353516 347.60489258 -47.02050781 347.91650391 C-99.25378324 371.24603974 -158.16768541 371.51829655 -211.36425781 351.25512695 C-226.1950173 345.46212536 -240.03547316 338.27835763 -253 329 C-254.44052734 327.97132813 -254.44052734 327.97132813 -255.91015625 326.921875 C-302.19589896 293.01558653 -331.13043544 245.15331688 -340.39794922 188.5703125 C-346.85298987 145.54877932 -338.5187926 101.16152013 -318 63 C-317.48695313 62.00871094 -316.97390625 61.01742187 -316.4453125 59.99609375 C-299.14985399 27.13472259 -271.0620421 -0.79063135 -238.82373047 -18.97070312 C-237.63085229 -19.64395271 -236.44215009 -20.32466958 -235.25830078 -21.01367188 C-162.08382045 -63.56227874 -64.84012149 -52.95504646 0 0 Z M-277 15 C-277.9827632 15.91960193 -278.9658395 16.83886937 -279.94921875 17.7578125 C-314.75881402 50.82407944 -336.22693189 101.38709334 -338.12402344 149.12060547 C-339.49193113 205.66923391 -321.11124519 257.75188214 -282 299 C-281.09765625 299.95519531 -280.1953125 300.91039062 -279.265625 301.89453125 C-242.18443352 340.43208373 -189.07591399 361.03823664 -136.09008789 362.28564453 C-95.08569728 362.69122703 -52.87813715 351.58922143 -19 328 C-18.18523193 327.4436084 -18.18523193 327.4436084 -17.35400391 326.87597656 C-9.37375657 321.41800635 -2.07684707 315.60752737 5 309 C6.39112536 307.78624946 7.78671325 306.57758747 9.1875 305.375 C25.73742141 290.87726884 38.94725846 272.49501075 49 253 C49.37898438 252.26797363 49.75796875 251.53594727 50.1484375 250.78173828 C74.04099186 204.02890015 78.75521023 149.45296009 63.15234375 99.27392578 C46.17094044 47.14432569 9.42996545 4.22426086 -39.32421875 -20.76171875 C-117.89297154 -60.03938675 -213.68852975 -46.14623529 -277 15 Z " fill="#CDD0D0" transform="translate(416,100)"/>
<path d="M0 0 C3.125 0.1875 3.125 0.1875 6.125 2.1875 C7.18408203 4.87719727 7.18408203 4.87719727 8.1328125 8.25390625 C8.47957031 9.46111328 8.82632812 10.66832031 9.18359375 11.91210938 C9.53550781 13.17861328 9.88742187 14.44511719 10.25 15.75 C10.95621543 18.25267854 11.66912758 20.75333607 12.3828125 23.25390625 C12.6936377 24.36709229 13.00446289 25.48027832 13.32470703 26.62719727 C13.87918843 29.09633658 13.87918843 29.09633658 15.125 30.1875 C15.37668945 29.34977051 15.62837891 28.51204102 15.88769531 27.64892578 C16.82968443 24.54018902 17.78535394 21.43609448 18.75048828 18.33447266 C19.16519963 16.99176767 19.57442989 15.64735692 19.97802734 14.30126953 C20.55941012 12.3657077 21.16225067 10.43663207 21.765625 8.5078125 C22.12172852 7.34523926 22.47783203 6.18266602 22.84472656 4.98486328 C24.125 2.1875 24.125 2.1875 26.11230469 0.80029297 C29.02237172 -0.08571725 30.33267797 -0.10126401 33.125 1.1875 C35.81065396 7.51797004 37.75197069 14.13166144 39.8125 20.6875 C40.13283203 21.70070313 40.45316406 22.71390625 40.78320312 23.7578125 C41.56570294 26.23378208 42.34625622 28.71034703 43.125 31.1875 C43.51824463 29.88546631 43.51824463 29.88546631 43.91943359 28.55712891 C44.89468895 25.33891563 45.87557827 22.12253413 46.86035156 18.90722656 C47.28547886 17.5150158 47.70834557 16.12211267 48.12890625 14.72851562 C48.73365413 12.72600143 49.34647632 10.72611439 49.9609375 8.7265625 C50.32751465 7.52209473 50.6940918 6.31762695 51.07177734 5.07666016 C52.125 2.1875 52.125 2.1875 54.125 0.1875 C59.45833333 -0.14583333 59.45833333 -0.14583333 62.125 1.1875 C59.70491409 10.74483233 56.58482613 20.03998427 53.4375 29.375 C52.92094187 30.91461893 52.40466381 32.45433185 51.88867188 33.99414062 C50.63733624 37.7263504 49.38223297 41.45727288 48.125 45.1875 C45.155 45.1875 42.185 45.1875 39.125 45.1875 C35.825 35.2875 32.525 25.3875 29.125 15.1875 C25.8758314 24.68530985 25.8758314 24.68530985 22.63305664 34.18530273 C22.22949951 35.36036377 21.82594238 36.5354248 21.41015625 37.74609375 C20.99644775 38.95579834 20.58273926 40.16550293 20.15649414 41.41186523 C19.125 44.1875 19.125 44.1875 18.125 45.1875 C15.45441149 45.32865161 12.80067762 45.22997107 10.125 45.1875 C8.44870437 40.20834348 6.77648867 35.22784169 5.10791016 30.24609375 C4.540649 28.55431887 3.97230764 26.86290575 3.40283203 25.171875 C2.58075841 22.73012917 1.76267988 20.28707467 0.9453125 17.84375 C0.69314972 17.09758423 0.44098694 16.35141846 0.18118286 15.5826416 C-1.40435442 10.82702733 -2.81518746 6.0902377 -3.875 1.1875 C-2.875 0.1875 -2.875 0.1875 0 0 Z " fill="#5F5F5F" transform="translate(412.875,517.8125)"/>
<path d="M0 0 C3.0625 0.125 3.0625 0.125 5.0625 1.125 C5.3925 13.005 5.7225 24.885 6.0625 37.125 C10.2881572 33.50300812 13.80042569 30.403522 17.43847656 26.37988281 C24.71833098 18.43687374 24.71833098 18.43687374 30.8125 17.875 C33.296875 17.921875 33.296875 17.921875 35.0625 18.125 C35.0625 19.115 35.0625 20.105 35.0625 21.125 C33.41058509 22.47656675 31.73955908 23.804762 30.0625 25.125 C28.19149304 27.18069863 26.39695418 29.28626207 24.61328125 31.41796875 C23.0625 33.125 23.0625 33.125 21.0625 34.125 C21.62116871 38.32847436 23.00796934 40.90838818 25.44140625 44.35546875 C26.11494141 45.32291016 26.78847656 46.29035156 27.48242188 47.28710938 C28.18947266 48.28548828 28.89652344 49.28386719 29.625 50.3125 C31.02619561 52.30313783 32.42354531 54.29649023 33.81640625 56.29296875 C34.43845947 57.17235107 35.0605127 58.0517334 35.70141602 58.95776367 C37.0625 61.125 37.0625 61.125 37.0625 63.125 C33.3998049 64.17705072 30.69735916 64.35966683 27.0625 63.125 C23.30385645 59.36371695 20.79789001 54.5221537 18.16894531 49.94384766 C16.67698419 47.49126373 14.91982881 45.30884552 13.0625 43.125 C7.97429387 47.00455755 7.97429387 47.00455755 5.6328125 52.7109375 C5.66829987 54.43967917 5.75896332 56.1684893 5.9140625 57.890625 C6.0625 60.125 6.0625 60.125 5.0625 63.125 C-1.08984375 63.22265625 -1.08984375 63.22265625 -2.9375 63.125 C-4.70473811 61.35776189 -4.06512833 58.8218116 -4.06689453 56.42773438 C-4.07004669 55.20977173 -4.07319885 53.99180908 -4.07644653 52.73693848 C-4.07465675 51.39754195 -4.0726058 50.05814576 -4.0703125 48.71875 C-4.0709856 47.3549396 -4.07195567 45.99112932 -4.07321167 44.62731934 C-4.07468838 41.76569479 -4.07253497 38.9041014 -4.06787109 36.04248047 C-4.06217381 32.36681386 -4.06545296 28.69122026 -4.07144356 25.01555634 C-4.07504991 22.19837896 -4.07391025 19.38121902 -4.07131577 16.56404114 C-4.0706467 15.20839937 -4.07147421 13.85275604 -4.07379532 12.49711609 C-4.07632301 10.60549956 -4.07179014 8.71387751 -4.06689453 6.82226562 C-4.06609894 5.74384399 -4.06530334 4.66542236 -4.06448364 3.55432129 C-3.8780234 -0.01284556 -3.62377084 0.15420301 0 0 Z " fill="#5F5F60" transform="translate(236.9375,499.875)"/>
<path d="M0 0 C4.83683475 3.60471474 6.43420322 8.07636526 7.375 13.875 C7.46581758 16.06627404 7.50564351 18.25997087 7.5078125 20.453125 C7.50910156 21.69578125 7.51039063 22.9384375 7.51171875 24.21875 C7.50785156 25.5078125 7.50398438 26.796875 7.5 28.125 C7.50580078 30.08179688 7.50580078 30.08179688 7.51171875 32.078125 C7.51042969 33.315625 7.50914062 34.553125 7.5078125 35.828125 C7.50668457 36.96411133 7.50555664 38.10009766 7.50439453 39.27050781 C7.375 41.875 7.375 41.875 6.375 42.875 C4.04202567 42.91592937 1.70794775 42.91741723 -0.625 42.875 C-1.285 41.555 -1.945 40.235 -2.625 38.875 C-3.594375 39.514375 -4.56375 40.15375 -5.5625 40.8125 C-10.45168731 43.57252509 -15.28816743 44.54118742 -20.8359375 43.43359375 C-25.43324463 41.93818716 -27.96098796 40.03085879 -30.625 35.875 C-32.23912391 32.64675218 -32.06244143 29.37453145 -31.625 25.875 C-29.77021209 21.49095585 -27.51092673 19.49792021 -23.3125 17.5 C-16.59179796 15.06160436 -9.66035898 15.53730277 -2.625 15.875 C-3.72286425 10.46712615 -3.72286425 10.46712615 -7.625 6.875 C-14.42458657 5.92993111 -20.34788271 7.327764 -26.625 9.875 C-28.625 6.1328125 -28.625 6.1328125 -28.625 3.8125 C-27.06043737 0.7811599 -24.70040739 0.14134422 -21.625 -1.125 C-14.80457762 -3.23152354 -6.2851621 -3.64492672 0 0 Z M-21.625 25.0625 C-23.33831707 28.16788719 -22.52435585 30.57736187 -21.625 33.875 C-19.24524722 35.98016592 -17.42302547 35.89370135 -14.25 36.1875 C-9.3966647 35.76910903 -6.07283653 34.32283653 -2.625 30.875 C-2.38287127 28.89371492 -2.38287127 28.89371492 -2.5 26.75 C-2.54125 25.47125 -2.5825 24.1925 -2.625 22.875 C-9.02908182 20.74030606 -15.81061507 21.61020895 -21.625 25.0625 Z " fill="#545455" transform="translate(170.625,520.125)"/>
<path d="M0 0 C6.85198203 4.05898364 11.15057066 9.61001712 13.16796875 17.30859375 C14.11947655 24.2215892 12.84668696 30.82889679 8.86328125 36.58984375 C4.31801782 41.84530459 0.06917155 44.10437936 -6.82421875 45.02734375 C-13.86148343 45.42312956 -18.92500445 43.75677772 -24.76171875 39.90234375 C-29.83830217 34.58964017 -32.57484384 28.50172395 -32.44921875 21.08984375 C-31.63594423 13.74534926 -29.11657788 8.29632586 -23.51171875 3.33984375 C-16.73687282 -1.63759408 -8.01919128 -2.98001845 0 0 Z M-20.44921875 12.08984375 C-23.34362718 16.79076226 -23.06874763 21.74074071 -22.44921875 27.08984375 C-21.27227901 30.51146237 -19.75608577 33.25946769 -16.6171875 35.25390625 C-11.77209924 37.12210244 -6.30220566 36.79949831 -1.51171875 34.96484375 C1.90843257 31.85561528 3.33949839 29.06085239 3.8359375 24.4296875 C4.05127988 17.47319232 3.13637257 13.98884008 -1.51171875 8.77734375 C-8.62222944 4.69258229 -15.13761876 6.24708376 -20.44921875 12.08984375 Z " fill="#5A5B5C" transform="translate(391.44921875,518.91015625)"/>
<path d="M0 0 C1.24210545 0.64223765 2.4772869 1.2995149 3.6875 2 C3.6875 5.76687864 3.45212683 6.91190305 1.6875 10 C0.86572266 9.54367187 0.86572266 9.54367187 0.02734375 9.078125 C-2.56583728 7.8832703 -4.94864247 7.29395292 -7.75 6.75 C-8.67683594 6.55921875 -9.60367188 6.3684375 -10.55859375 6.171875 C-13.69066731 5.97639807 -15.51714996 6.64037421 -18.3125 8 C-18.3125 9.65 -18.3125 11.3 -18.3125 13 C-17.219375 13.4125 -16.12625 13.825 -15 14.25 C-14.27554688 14.52714844 -13.55109375 14.80429687 -12.8046875 15.08984375 C-11.05415498 15.72914481 -9.28615675 16.32162567 -7.5078125 16.87890625 C-1.40526765 18.85520465 2.53725062 20.24264769 5.6875 26 C6.73071633 30.88295375 6.23933708 34.03873541 3.75 38.375 C-0.58394174 42.78239838 -6.25545974 43.76775352 -12.1875 44.4375 C-18.58259041 44.19301968 -25.04812147 41.50958569 -30.3125 38 C-29.69972388 35.03824877 -29.05877478 33.61941217 -27.3125 31 C-26.260625 31.433125 -26.260625 31.433125 -25.1875 31.875 C-24.23875 32.24625 -23.29 32.6175 -22.3125 33 C-21.405 33.37125 -20.4975 33.7425 -19.5625 34.125 C-15.47083064 35.22660329 -11.52707178 35.54588739 -7.3125 35 C-6.3225 34.34 -5.3325 33.68 -4.3125 33 C-4.06219023 30.41619823 -4.06219023 30.41619823 -4.3125 28 C-8.63060581 26.03722463 -12.89568293 24.50436667 -17.4375 23.125 C-22.16722714 21.54249731 -25.57642463 20.39726399 -28.3125 16 C-29.10303738 11.65994976 -28.82132219 8.17029103 -27.0625 4.125 C-20.46728334 -3.88347738 -9.05871776 -4.0757029 0 0 Z " fill="#5C5C5D" transform="translate(217.3125,520)"/>
<path d="M0 0 C0.76183594 -0.01417969 1.52367187 -0.02835937 2.30859375 -0.04296875 C4.79597315 0.21137334 6.41058106 0.94732804 8.5625 2.1875 C8.2325 4.4975 7.9025 6.8075 7.5625 9.1875 C6.79164063 9.15269531 6.02078125 9.11789062 5.2265625 9.08203125 C3.72222656 9.04142578 3.72222656 9.04142578 2.1875 9 C1.18976563 8.96519531 0.19203125 8.93039062 -0.8359375 8.89453125 C-2.12371094 9.03955078 -2.12371094 9.03955078 -3.4375 9.1875 C-5.37145001 12.08842502 -5.73881941 13.08424737 -6.0625 16.375 C-6.18625 17.633125 -6.31 18.89125 -6.4375 20.1875 C-2.1475 20.1875 2.1425 20.1875 6.5625 20.1875 C6.5625 22.4975 6.5625 24.8075 6.5625 27.1875 C2.2725 27.1875 -2.0175 27.1875 -6.4375 27.1875 C-6.4375 39.3975 -6.4375 51.6075 -6.4375 64.1875 C-9.4075 64.1875 -12.3775 64.1875 -15.4375 64.1875 C-15.4375 52.3075 -15.4375 40.4275 -15.4375 28.1875 C-17.4175 28.1875 -19.3975 28.1875 -21.4375 28.1875 C-22.4375 27.1875 -22.4375 27.1875 -22.5 23.625 C-22.479375 22.490625 -22.45875 21.35625 -22.4375 20.1875 C-20.1275 20.1875 -17.8175 20.1875 -15.4375 20.1875 C-15.47230469 19.60742188 -15.50710938 19.02734375 -15.54296875 18.4296875 C-15.72370827 13.21406133 -15.44866142 9.65232556 -12.4375 5.1875 C-8.45319815 1.50202079 -5.40127741 0.04554197 0 0 Z " fill="#5E5F60" transform="translate(323.4375,498.8125)"/>
<path d="M0 0 C2.97 0 5.94 0 9 0 C9 3.96 9 7.92 9 12 C11.6915625 11.9690625 11.6915625 11.9690625 14.4375 11.9375 C16.29166122 11.9161878 18.14712498 11.92773498 20 12 C21 13 21 13 21.0625 16.0625 C21.041875 17.031875 21.02125 18.00125 21 19 C18.11788698 19.96070434 16.30149956 20.10581883 13.3125 20.0625 C12.10013672 20.04896484 12.10013672 20.04896484 10.86328125 20.03515625 C10.24839844 20.02355469 9.63351563 20.01195312 9 20 C9.13811922 24.31278385 9.28678109 28.62513953 9.4375 32.9375 C9.47681641 34.16919922 9.51613281 35.40089844 9.55664062 36.66992188 C9.59853516 37.83974609 9.64042969 39.00957031 9.68359375 40.21484375 C9.72025146 41.29886475 9.75690918 42.38288574 9.79467773 43.49975586 C9.72364265 45.939263 9.72364265 45.939263 11 47 C12.68608966 47.07205511 14.37500659 47.08386068 16.0625 47.0625 C16.98160156 47.05347656 17.90070313 47.04445313 18.84765625 47.03515625 C19.55792969 47.02355469 20.26820313 47.01195312 21 47 C21.33 49.64 21.66 52.28 22 55 C16.14708406 56.77677805 11.99275346 57.4736279 6 56 C2.8213759 53.4300486 1.29271891 51.87815673 0 48 C-0.0833804 45.86205475 -0.10733747 43.72157991 -0.09765625 41.58203125 C-0.09443359 40.32841797 -0.09121094 39.07480469 -0.08789062 37.78320312 C-0.07951172 36.47287109 -0.07113281 35.16253906 -0.0625 33.8125 C-0.05748317 32.47721519 -0.05292059 31.14192859 -0.04882812 29.80664062 C-0.03702695 26.53771527 -0.02056297 23.26888009 0 20 C-2.31 20 -4.62 20 -7 20 C-7 17.36 -7 14.72 -7 12 C-4.69 12 -2.38 12 0 12 C0 8.04 0 4.08 0 0 Z " fill="#606163" transform="translate(111,507)"/>
<path d="M0 0 C6.15234375 -0.09765625 6.15234375 -0.09765625 8 0 C9.66623578 1.66623578 9.16740691 3.68758912 9.20532227 5.97875977 C9.22526749 7.03978409 9.24521271 8.10080841 9.26576233 9.19398499 C9.28247482 10.348134 9.29918732 11.50228302 9.31640625 12.69140625 C9.33718735 13.86638168 9.35796844 15.04135712 9.37937927 16.25193787 C9.44500124 20.02206324 9.5038183 23.79226082 9.5625 27.5625 C9.6056732 30.11133573 9.64928708 32.66016403 9.69335938 35.20898438 C9.80069545 41.47257892 9.9024379 47.73624601 10 54 C11.98 54.33 13.96 54.66 16 55 C16.33 57.31 16.66 59.62 17 62 C12.66643232 64.23244396 9.69671265 64.25804803 5 63 C2.42110238 61.33546223 1.41684763 60.61985618 0 58 C-0.70630144 53.60702094 -0.58045221 49.263298 -0.48828125 44.82421875 C-0.48120651 43.54392288 -0.47413177 42.26362701 -0.46684265 40.9445343 C-0.44781714 37.55254688 -0.39875838 34.16164226 -0.34332275 30.77008057 C-0.29203199 27.30455166 -0.26930789 23.83884653 -0.24414062 20.37304688 C-0.1890341 13.58156313 -0.10537646 6.79087971 0 0 Z " fill="#5E5F5F" transform="translate(338,500)"/>
<path d="M0 0 C1.89453125 1.3359375 1.89453125 1.3359375 3.1875 2.625 C3.1875 3.285 3.1875 3.945 3.1875 4.625 C1.5375 4.625 -0.1125 4.625 -1.8125 4.625 C-1.68681641 6.01525391 -1.68681641 6.01525391 -1.55859375 7.43359375 C-1.45675781 8.63113281 -1.35492188 9.82867188 -1.25 11.0625 C-1.14558594 12.25746094 -1.04117188 13.45242188 -0.93359375 14.68359375 C-0.89363281 15.65425781 -0.85367188 16.62492188 -0.8125 17.625 C-2.97340886 19.78590886 -8.0130847 19.34900131 -10.8125 19.625 C-7.8425 20.285 -4.8725 20.945 -1.8125 21.625 C-1.8125 24.265 -1.8125 26.905 -1.8125 29.625 C-2.1425 29.625 -2.4725 29.625 -2.8125 29.625 C-2.8125 27.315 -2.8125 25.005 -2.8125 22.625 C-10.27267494 22.35481258 -16.41605623 22.36070415 -22.8125 26.625 C-22.791875 25.51125 -22.77125 24.3975 -22.75 23.25 C-22.54869282 19.79284079 -22.54869282 19.79284079 -23.8125 17.625 C-19.10788677 15.76367327 -14.9367304 15.3740504 -9.9375 15.5 C-8.90496094 15.51353516 -8.90496094 15.51353516 -7.8515625 15.52734375 C-6.17172162 15.55067487 -4.49206254 15.58653674 -2.8125 15.625 C-3.91036425 10.21712615 -3.91036425 10.21712615 -7.8125 6.625 C-14.61208657 5.67993111 -20.53538271 7.077764 -26.8125 9.625 C-28.8125 5.8828125 -28.8125 5.8828125 -28.8125 3.5625 C-27.24793737 0.5311599 -24.88790739 -0.10865578 -21.8125 -1.375 C-14.81377815 -3.53659228 -6.36140013 -3.86918792 0 0 Z " fill="#5C5D5F" transform="translate(170.8125,520.375)"/>
<path d="M0 0 C2 3 2 3 1.625 5.6875 C1.315625 6.8321875 1.315625 6.8321875 1 8 C-3.455 8.495 -3.455 8.495 -8 9 C-3.545 9.99 -3.545 9.99 1 11 C1 13.64 1 16.28 1 19 C0.67 19 0.34 19 0 19 C0 16.69 0 14.38 0 12 C-7.46017494 11.72981258 -13.60355623 11.73570415 -20 16 C-19.979375 14.88625 -19.95875 13.7725 -19.9375 12.625 C-19.73619282 9.16784079 -19.73619282 9.16784079 -21 7 C-16.29538677 5.13867327 -12.1242304 4.7490504 -7.125 4.875 C-6.09246094 4.88853516 -6.09246094 4.88853516 -5.0390625 4.90234375 C-3.35922162 4.92567487 -1.67956254 4.96153674 0 5 C0 3.35 0 1.7 0 0 Z " fill="#777779" transform="translate(168,531)"/>
<path d="M0 0 C0.33 0 0.66 0 1 0 C1.92169321 3.91559438 2.12883848 7.55982396 2.1328125 11.578125 C2.13410156 12.82078125 2.13539063 14.0634375 2.13671875 15.34375 C2.13285156 16.6328125 2.12898437 17.921875 2.125 19.25 C2.12886719 20.55453125 2.13273438 21.8590625 2.13671875 23.203125 C2.13542969 24.440625 2.13414062 25.678125 2.1328125 26.953125 C2.13168457 28.08911133 2.13055664 29.22509766 2.12939453 30.39550781 C2 33 2 33 1 34 C-1.33297433 34.04092937 -3.66705225 34.04241723 -6 34 C-5.34 33.34 -4.68 32.68 -4 32 C-2.68 32 -1.36 32 0 32 C0 21.44 0 10.88 0 0 Z " fill="#9B9B9C" transform="translate(176,529)"/>
<path d="M0 0 C-1.75 3.875 -1.75 3.875 -4 5 C-2.68 5.66 -1.36 6.32 0 7 C-4.455 8.485 -4.455 8.485 -9 10 C-11 6 -11 6 -11 3.9375 C-8.82834149 -0.27008837 -4.2998429 -1.8191643 0 0 Z " fill="#6F6F6F" transform="translate(153,520)"/>
<path d="M0 0 C2.31 0 4.62 0 7 0 C6.67 0.99 6.34 1.98 6 3 C6.639375 3.433125 7.27875 3.86625 7.9375 4.3125 C10 6 10 6 11 9 C11.66 9 12.32 9 13 9 C12.34 10.32 11.68 11.64 11 13 C9.49403892 11.54782324 7.99537896 10.08807139 6.5 8.625 C5.24703125 7.40683594 5.24703125 7.40683594 3.96875 6.1640625 C2 4 2 4 2 2 C1.34 2 0.68 2 0 2 C0 1.34 0 0.68 0 0 Z " fill="#2F607F" transform="translate(204,332)"/>
<path d="M0 0 C0.99 0.99 1.98 1.98 3 3 C-0.3 6.3 -3.6 9.6 -7 13 C-7.99 12.34 -8.98 11.68 -10 11 C-9.67 10.01 -9.34 9.02 -9 8 C-8.360625 7.855625 -7.72125 7.71125 -7.0625 7.5625 C-6.0415625 7.2840625 -6.0415625 7.2840625 -5 7 C-3.89163577 5.11683841 -3.89163577 5.11683841 -3 3 C-1.375 1.25 -1.375 1.25 0 0 Z " fill="#2E5C83" transform="translate(261,340)"/>
<path d="M0 0 C0.66 0.33 1.32 0.66 2 1 C-8.6744186 12.97674419 -8.6744186 12.97674419 -12 16 C-12.66 16 -13.32 16 -14 16 C-10.88847163 9.29260159 -5.73988517 4.50990977 0 0 Z " fill="#6ABEE6" transform="translate(297,261)"/>
<path d="M0 0 C1.76923828 0.01353516 1.76923828 0.01353516 3.57421875 0.02734375 C4.47785156 0.03894531 5.38148438 0.05054688 6.3125 0.0625 C6.3125 0.3925 6.3125 0.7225 6.3125 1.0625 C5.25289062 1.08828125 4.19328125 1.1140625 3.1015625 1.140625 C1.71349999 1.1968978 0.32548075 1.25424533 -1.0625 1.3125 C-2.11050781 1.33376953 -2.11050781 1.33376953 -3.1796875 1.35546875 C-5.46467646 1.42285782 -5.46467646 1.42285782 -8.6875 2.0625 C-10.12240698 3.9209382 -10.12240698 3.9209382 -10.6875 6.0625 C-11.368125 6.64 -12.04875 7.2175 -12.75 7.8125 C-15.57487183 11.09299632 -15.40273418 13.79101263 -15.6875 18.0625 C-16.0175 18.0625 -16.3475 18.0625 -16.6875 18.0625 C-17.25612745 8.39583333 -17.25612745 8.39583333 -13.6875 4.0625 C-9.30546696 0.22822109 -5.70416926 -0.05647692 0 0 Z " fill="#888786" transform="translate(205.6875,517.9375)"/>
<path d="M0 0 C0.66 0 1.32 0 2 0 C2.08121924 1.60332791 2.13929134 3.20784026 2.1875 4.8125 C2.22230469 5.70582031 2.25710938 6.59914063 2.29296875 7.51953125 C1.95081002 10.41647515 1.24606427 11.22555028 -1 13 C-1.89778361 10.30664917 -2.56897081 7.8016897 -3 5 C-2.67 4.34 -2.34 3.68 -2 3 C-1.34 3 -0.68 3 0 3 C0 2.01 0 1.02 0 0 Z " fill="#4D4E4C" transform="translate(449,535)"/>
<path d="M0 0 C2.31 0 4.62 0 7 0 C7 0.66 7 1.32 7 2 C4.03 3.65 1.06 5.3 -2 7 C-1 2 -1 2 0 0 Z " fill="#396888" transform="translate(296,160)"/>
<path d="M0 0 C0.66 0.33 1.32 0.66 2 1 C0.59419724 2.65512248 -0.82506266 4.29882206 -2.25 5.9375 C-3.03890625 6.85402344 -3.8278125 7.77054688 -4.640625 8.71484375 C-6.91251033 10.91526249 -7.92319022 11.66832555 -11 12 C-7.49102731 7.81576108 -3.91939465 3.80411834 0 0 Z " fill="#6BC0E5" transform="translate(298,176)"/>
<path d="M0 0 C2.4375 0.625 2.4375 0.625 5 2 C5.9375 5 5.9375 5 6 8 C5.34 8.66 4.68 9.32 4 10 C3.32845067 8.71086513 2.66291141 7.41859796 2 6.125 C1.62875 5.40570313 1.2575 4.68640625 0.875 3.9453125 C0 2 0 2 0 0 Z " fill="#3B6680" transform="translate(142,186)"/>
<path d="M0 0 C0.99 0.33 1.98 0.66 3 1 C-2.14285714 7.57142857 -2.14285714 7.57142857 -6 9 C-5.52797514 4.75177626 -3.03344482 2.80010291 0 0 Z " fill="#707276" transform="translate(399,552)"/>
<path d="M0 0 C0 1.98 0 3.96 0 6 C-0.66 5.01 -1.32 4.02 -2 3 C-3.32 3.99 -4.64 4.98 -6 6 C-6.66 5.67 -7.32 5.34 -8 5 C-8 3 -8 3 -6.8125 1.375 C-4.44439338 -0.42149467 -2.90102749 -0.23521845 0 0 Z " fill="#787A7D" transform="translate(170,556)"/>
<path d="M0 0 C3.125 0.1875 3.125 0.1875 6.125 2.1875 C5.795 3.5075 5.465 4.8275 5.125 6.1875 C4.795 5.1975 4.465 4.2075 4.125 3.1875 C1.70880177 2.93719023 1.70880177 2.93719023 -0.875 3.1875 C-1.535 4.1775 -2.195 5.1675 -2.875 6.1875 C-3.25718767 4.53135343 -3.58895102 2.86292976 -3.875 1.1875 C-2.875 0.1875 -2.875 0.1875 0 0 Z " fill="#9D9D9F" transform="translate(412.875,517.8125)"/>
<path d="M0 0 C2.31 0 4.62 0 7 0 C6.67 2.31 6.34 4.62 6 7 C4 5.625 4 5.625 2 4 C2 3.34 2 2.68 2 2 C1.34 2 0.68 2 0 2 C0 1.34 0 0.68 0 0 Z " fill="#406E8A" transform="translate(204,332)"/>
<path d="M0 0 C0.66 0.33 1.32 0.66 2 1 C1.6875 2.875 1.6875 2.875 1 5 C-2 7 -2 7 -4.1875 6.625 C-4.785625 6.41875 -5.38375 6.2125 -6 6 C-5.67 5.34 -5.34 4.68 -5 4 C-4.01 4 -3.02 4 -2 4 C-1.34 2.68 -0.68 1.36 0 0 Z " fill="#696B6C" transform="translate(218,555)"/>
<path d="M0 0 C0.99 0.99 1.98 1.98 3 3 C1.35 4.32 -0.3 5.64 -2 7 C-2.66 6.01 -3.32 5.02 -4 4 C-2.68 2.68 -1.36 1.36 0 0 Z " fill="#396482" transform="translate(261,340)"/>
<path d="M0 0 C0 1.32 0 2.64 0 4 C-2.49361571 2.79618552 -4.68143083 1.54571278 -7 0 C-4.3333581 -1.33332095 -2.83319697 -0.67102033 0 0 Z " fill="#7C7E7F" transform="translate(219,526)"/>
<path d="M0 0 C0.99 0 1.98 0 3 0 C3 1.65 3 3.3 3 5 C2.01 5.33 1.02 5.66 0 6 C-0.38218767 4.34385343 -0.71395102 2.67542976 -1 1 C-0.67 0.67 -0.34 0.34 0 0 Z " fill="#686A6B" transform="translate(329,501)"/>
<path d="M0 0 C0.99 0.33 1.98 0.66 3 1 C1.625 3 1.625 3 0 5 C-0.66 5 -1.32 5 -2 5 C-2.33 5.66 -2.66 6.32 -3 7 C-2.38722388 4.03824877 -1.74627478 2.61941217 0 0 Z " fill="#828583" transform="translate(190,551)"/>
<path d="M0 0 C3.68754757 0.49831724 5.60490662 1.10067643 8 4 C4.79604584 4 2.90600261 3.25664978 0 2 C0 1.34 0 0.68 0 0 Z " fill="#818180" transform="translate(211,538)"/>
</svg>
